# xmcd CD database file
#
# Track frame offsets:
#	150
#	29884
#	76912
#	113112
#	134287
#	150625
#	166607
#	188820
#	210970
#	226407
#	246366
#	270584
#	289092
#	308988
#
# Disc length: 4406 seconds
#
# Revision: 0
# Processed by: cddbd v1.5.1PL2 Copyright (c) Steve Scherf et al.
# Submitted via: CDex 1.51
#
DISCID=ba11340e
DTITLE=Varios Artistas - Salsa Mix
DYEAR=1900
DGENRE=Salsa
TTITLE0=Mega Mix Salsa 1
TTITLE1=Mega Mix Salsa 2
TTITLE2=Mega Mix Sonora Carruseles
TTITLE3=Acuyuye-La Sonora Carruseles
TTITLE4=Todo Bailan-Fruko y Sus Tesos
TTITLE5=La Fruta Bomba-Fruko y Sus Tesos
TTITLE6=A mi Dios Todo Le Debo-Joe Arroyo and Juan Carlos Coronel
TTITLE7=El Preso-Fruko y Sus Tesos
TTITLE8=Sobre Las Olas-The Latin Brothers
TTITLE9=La Tormenta-Gabino Pampini
TTITLE10=El Carretero-The Latin Brothers
TTITLE11=Suave Bruta-Joe Arroyo and Juan Carlos Caonel
TTITLE12=Alam Navidena-Fruko y Sus Tesos
TTITLE13=Por Retenerte-Los Titanes
EXTD=
EXTT0=
EXTT1=
EXTT2=
EXTT3=
EXTT4=
EXTT5=
EXTT6=
EXTT7=
EXTT8=
EXTT9=
EXTT10=
EXTT11=
EXTT12=
EXTT13=
PLAYORDER=
